<svg id="Layer_1" data-name="Layer 1" xmlns="http://www.w3.org/2000/svg" viewBox="0 0 841.89 715.68">
  <defs>
    <style>
      .cls-1 { fill: #dca35a; }
      .cls-2 { fill: #00839f; }
      .cls-3 { fill: #007493; }
    </style>
  </defs>
  <g id="se0Wtd">
    <path class="cls-2" d="M451.65,428.7h55.57l.96-168.28c.53-7.46,4.56-10.67,11.62-11.62,30.59-4.11,151.4-2.87,180.23,3.76,57.32,13.19,84.52,64.76,88.12,120.02,1.67,25.7,3.08,80.75,0,105.16-.7,5.51-4.09,13.6-10.65,13.6h-208.65v49.51h-32.84c-13.02,0-27.79-17.11-27.79-29.81v-19.7H64.16c-6.79,0-10.04,-10.15-10.64-15.63-2.71-24.63-1.47-71.5,0-97.06,9.62-168.29,150.13-123.97,270.34-129.82,4.29-.53,10.59,7.36,10.59,10.63v139.94h-61.63v-89.93h-105.59c-29.81,0-52.04,31.48-52.04,59.11v61.13l275.84-1.01v-230.88c0-14.58,23.64-34.86,37.89,-34.86h21.22l1.52,1.52v264.22ZM726.48,428.7c2.87-38.31,5.49-119.23-51.03-119.23h-105.59v120.24l1.52-1.01h155.1Z"/>
  </g>
  <rect class="cls-1" x="608.06" y="515.44" width="179.59" height="49.87" rx="24.93" ry="24.93"/>
  <circle class="cls-1" cx="153.12" cy="195.65" r="34.01"/>
  <circle class="cls-1" cx="230.45" cy="195.65" r="34.01"/>
  <g>
    <path class="cls-3" d="M150.56,544.15c0,3.15-.81,5.98-2.43,8.49s-4,4.48-7.12,5.9c-3.13,1.42-6.83,2.13-11.12,2.13-5.14,0-9.38-.97-12.72-2.91-2.37-1.4-4.29-3.26-5.77-5.6-1.48-2.33,-2.22-4.6-2.22-6.8,0-1.28.44-2.37,1.33-3.29.89-.91,2.02-1.37,3.39-1.37,1.11,0,2.05.35,2.82,1.07.77.71,1.43,1.76,1.97,3.16.66,1.66,1.38,3.04,2.15,4.16.77,1.11,1.85,2.03,3.25,2.75,1.4.72,3.23,1.08,5.51,1.08,3.13,0,5.67-.73,7.62-2.19,1.95-1.46,2.93-3.27,2.93-5.45,0-1.73-.53-3.13-1.58-4.21-1.05-1.08-2.42,-1.9-4.08-2.47s-3.9-1.17-6.7-1.81c-3.74-.88-6.87-1.9-9.4-3.07s-4.52-2.77-6-4.8c-1.48-2.02-2.22-4.54-2.22-7.55s.78-5.41,2.34-7.64c1.56-2.23,3.82-3.94,6.78-5.13,2.96-1.2,6.44-1.79,10.44-1.79,3.2,0,5.96.4,8.29,1.19,2.33.79,4.27,1.85,5.81,3.16,1.54,1.31,2.66,2.69,3.37,4.14.71,1.44,1.07,2.85,1.07,4.23,0,1.26-.44,2.39-1.33,3.39-.89,1.01-2,1.51-3.32,1.51-1.21,0-2.13-.3-2.75-.91-.63-.6-1.31-1.59-2.04-2.97-.95-1.97-2.08,-3.5-3.41-4.6-1.33-1.1-3.46-1.65-6.39-1.65-2.72,0-4.92.6,-6.59,1.79s-2.5,2.63-2.5,4.32c0,1.04.28,1.94.85,2.7.57.76,1.35,1.41,2.34,1.95s2,.97,3.02,1.28,2.7.76,5.04,1.35c2.94.69,5.59,1.44,7.97,2.27,2.38.83,4.4,1.84,6.07,3.02s2.97,2.68,3.91,4.49,1.4,4.03,1.4,6.66Z"/>
    <path class="cls-3" d="M193.82,515.84h-23.76v12.79h21.88c1.61,0,2.81.36,3.61,1.08.79.72,1.19,1.68,1.19,2.86s-.39,2.15-1.17,2.9c-.78.75-1.99,1.12-3.62,1.12h-21.88v14.81h24.58c1.66,0,2.91.39,3.75,1.15.84.77,1.26,1.79,1.26,3.07s-.42,2.23-1.26,3c-.84.77-2.09,1.15-3.75,1.15h-28.67c-2.3,0-3.95-.51-4.96-1.53-1.01-1.02,-1.51-2.66-1.51-4.94v-39.15c0-1.52.22-2.75.67-3.71.45-.96,1.15-1.66,2.11-2.1.96-.44,2.18-.66,3.68-.66h27.85c1.68,0,2.93.37,3.75,1.12s1.23,1.72,1.23,2.93-.41,2.22-1.23,2.97c-.82.75-2.07,1.12-3.75,1.12Z"/>
    <path class="cls-3" d="M218.37,513.21v37.9h21.38c1.71,0,3.01.41,3.93,1.24.91.83,1.37,1.87,1.37,3.13s-.45,2.31-1.35,3.11c-.9.79,-2.21,1.19-3.94,1.19h-25.47c-2.3,0-3.95-.51-4.96-1.53-1.01-1.02,-1.51-2.66-1.51-4.94v-40.1c0-2.13.48-3.73,1.44-4.8.96-1.07,2.22-1.6,3.78-1.6s2.87.53,3.85,1.58c.98,1.05,1.47,2.66,1.47,4.81Z"/>
    <path class="cls-3" d="M284.33,553.88l-2.49-6.54h-21.17l-2.49,6.68c-.97,2.6-1.8,4.36-2.49,5.27-.69.91-1.81,1.37-3.38,1.37-1.33,0-2.5-.49-3.52-1.46s-1.53-2.07-1.53-3.3c0-.71.12-1.44,.36-2.2.24-.76.63-1.81,1.17-3.16l13.32-33.82c.38-.97.83-2.14,1.37-3.5.53-1.36,1.1-2.49,1.71-3.39.6-.9,1.4-1.63,2.38-2.18.98-.56,2.2-.83,3.64-.83s2.69.28,3.68.83c.98.56,1.78,1.27,2.38,2.15.6.88,1.11,1.82,1.53,2.82.41,1.01.94,2.35,1.58,4.03l13.6,33.6c1.07,2.56,1.6,4.42,1.6,5.58s-.5,2.31-1.51,3.32-2.22,1.51-3.64,1.51c-.83,0-1.54-.15-2.13-.44-.59-.3-1.09-.7,-1.49-1.21-.4-.51-.83-1.29-1.3-2.34-.46-1.05-.86-1.98-1.19,-2.79ZM263.45,539.43h15.56l-7.85-21.49-7.71,21.49Z"/>
  </g>
</svg>
